<?xml version="1.0" encoding="utf-8"?>
<!-- Generator: Adobe Illustrator 25.0.1, SVG Export Plug-In . SVG Version: 6.00 Build 0)  -->
<svg version="1.1" id="Layer_1" xmlns="http://www.w3.org/2000/svg" xmlns:xlink="http://www.w3.org/1999/xlink" x="0px" y="0px"
	 viewBox="0 0 154.89 162.24" style="enable-background:new 0 0 154.89 162.24;" xml:space="preserve">
<style type="text/css">
	.st0{fill:#4285F4;}
	.st1{fill:#FFFFFF;}
	.st2{fill:#5E6369;}
</style>
<path class="st0" d="M81.34,1.39L98.7,15.62l22.46-1.29c2.92-0.17,5.55,1.75,6.28,4.57l5.7,21.79l18.91,12.07
	c2.47,1.58,3.48,4.67,2.41,7.4l-8.18,20.95l8.18,20.97c1.06,2.73,0.05,5.83-2.42,7.4l-18.91,12.05l-5.7,21.79
	c-0.74,2.83-3.37,4.74-6.28,4.57l-22.46-1.29l-17.37,14.23c-2.26,1.85-5.52,1.85-7.78,0l-17.35-14.23l-22.48,1.29
	c-2.92,0.17-5.55-1.75-6.28-4.57l-5.7-21.79L2.84,109.49c-2.47-1.57-3.48-4.67-2.42-7.4L8.6,81.12L0.42,60.17
	c-1.06-2.73-0.05-5.83,2.41-7.4L21.75,40.7l5.7-21.79c0.74-2.83,3.37-4.74,6.28-4.57l22.48,1.29L73.56,1.39
	C75.82-0.46,79.07-0.46,81.34,1.39z"/>
<g>
	<path class="st1" d="M40.63,70.21l14.5,8.37l11.78-6.8c3.54-2.04,5.36-6.35,3.9-10.17c-1.3-3.39-4.44-5.32-7.69-5.32
		c-1.39,0-2.8,0.35-4.09,1.1L38.51,69.24C39.24,69.5,39.95,69.82,40.63,70.21z"/>
	<path class="st1" d="M30.54,88.4l28.49,16.45c1.29,0.75,2.7,1.1,4.09,1.1c3.24,0,6.39-1.93,7.69-5.31
		c1.47-3.81-0.35-8.13-3.89-10.17L38.43,74.02c-1.29-0.75-2.7-1.1-4.09-1.1c-3.24,0-6.39,1.93-7.69,5.31
		C25.18,82.05,27.01,86.36,30.54,88.4z"/>
	<path class="st1" d="M124.35,73.83L95.86,57.39c-1.29-0.75-2.7-1.1-4.09-1.1c-3.24,0-6.39,1.93-7.69,5.31
		c-1.47,3.81,0.35,8.13,3.89,10.17l28.49,16.45c1.29,0.75,2.7,1.1,4.09,1.1c3.24,0,6.39-1.93,7.69-5.31
		C129.71,80.19,127.89,75.88,124.35,73.83z"/>
	<path class="st1" d="M114.26,92.03l-14.5-8.37l-11.78,6.8c-3.54,2.04-5.36,6.35-3.9,10.17c1.3,3.39,4.44,5.32,7.69,5.32
		c1.39,0,2.8-0.35,4.09-1.1L116.39,93C115.65,92.74,114.94,92.42,114.26,92.03z"/>
</g>
</svg>
